<svg width="48" height="48" viewBox="0 0 48 48" fill="none" xmlns="http://www.w3.org/2000/svg">
<mask id="mask0_130_450" style="mask-type:alpha" maskUnits="userSpaceOnUse" x="0" y="0" width="48" height="48">
<rect width="48" height="48" rx="4" fill="#E8F5C8"/>
</mask>
<g mask="url(#mask0_130_450)">
<rect width="48" height="48" rx="4" fill="#E8F5C8"/>
<path d="M44.531 13.4028H43.9534V5.93218H44.531V13.4028ZM44.531 0.518207H43.9534V6.44431H44.531V0.526337V0.518207ZM44.2381 -0.538574C43.8069 -0.538574 43.4652 -0.189023 43.4652 0.233689C43.4652 0.656402 43.815 1.00595 44.2381 1.00595C44.6612 1.00595 45.0111 0.656402 45.0111 0.233689C45.0111 -0.189023 44.6612 -0.538574 44.2381 -0.538574ZM47.444 1.39615L46.9395 1.1035L43.9778 6.23296L44.4822 6.52561L47.444 1.39615ZM47.7206 0.339368C47.3544 0.128011 46.8744 0.249947 46.6628 0.623886C46.4513 0.997824 46.5733 1.46931 46.9476 1.68067C47.3219 1.89202 47.7938 1.77009 48.0054 1.39615C48.2169 1.02221 48.0949 0.550724 47.7206 0.339368ZM44.4985 6.23296L41.5368 1.1035L41.0323 1.39615L43.994 6.52561L44.4985 6.23296ZM40.4709 1.39615C40.6824 1.76196 41.1544 1.89202 41.5286 1.68067C41.9029 1.46931 42.025 0.997824 41.8134 0.623886C41.6019 0.249947 41.1299 0.128011 40.7557 0.339368C40.3814 0.550724 40.2593 1.02221 40.4709 1.39615ZM44.531 33.4898H43.9534V40.9604H44.531V33.4898ZM44.531 40.4483H43.9534V46.3744H44.531V40.4483ZM44.2381 47.4231C44.6694 47.4231 45.0111 47.0735 45.0111 46.6508C45.0111 46.2281 44.6612 45.8785 44.2381 45.8785C43.815 45.8785 43.4652 46.2281 43.4652 46.6508C43.4652 47.0735 43.815 47.4231 44.2381 47.4231ZM44.4985 40.6515L43.994 40.3589L41.0323 45.4883L41.5368 45.781L44.4985 40.6515ZM40.7557 46.5451C41.1218 46.7565 41.6019 46.6345 41.8134 46.2606C42.025 45.8867 41.9029 45.4152 41.5286 45.2038C41.1544 44.9925 40.6824 45.1144 40.4709 45.4883C40.2593 45.8623 40.3814 46.3338 40.7557 46.5451ZM47.444 45.4883L44.4822 40.3589L43.9778 40.6515L46.9395 45.781L47.444 45.4883ZM48.0054 45.4883C47.7938 45.1225 47.3219 44.9925 46.9476 45.2038C46.5733 45.4152 46.4513 45.8867 46.6628 46.2606C46.8744 46.6345 47.3463 46.7565 47.7206 46.5451C48.0949 46.3338 48.2169 45.8623 48.0054 45.4883ZM40.9835 14.3133L38.1194 7.41168L37.5824 7.63116L40.4465 14.5328L40.9835 14.3133ZM38.3147 7.88316L36.0446 2.41229L35.5076 2.63177L37.7777 8.10265L38.3147 7.88316ZM35.3774 1.5506C34.9787 1.71318 34.7915 2.16841 34.9624 2.55861C35.1333 2.94881 35.5808 3.1439 35.9713 2.97319C36.3619 2.80248 36.5572 2.35538 36.3863 1.96519C36.2154 1.57499 35.7679 1.37989 35.3774 1.5506ZM39.0795 2.11151L38.5018 2.03835L37.7288 7.90755L38.3065 7.98071L39.0795 2.11151ZM38.9331 1.03034C38.51 0.973436 38.1194 1.27421 38.0625 1.69693C38.0055 2.11964 38.3065 2.50983 38.7297 2.56674C39.1528 2.62364 39.5433 2.32287 39.6003 1.90015C39.6572 1.47744 39.3562 1.08724 38.9331 1.03034ZM38.2089 7.71245L33.506 4.10314L33.1561 4.56649L37.859 8.17581L38.2089 7.71245ZM32.6353 4.77785C32.9771 5.03798 33.4571 4.97295 33.7175 4.63153C33.9779 4.29011 33.9128 3.81049 33.571 3.55036C33.2293 3.29023 32.7493 3.35526 32.4889 3.69668C32.2285 4.0381 32.2936 4.51772 32.6353 4.77785ZM37.7614 16.5813L32.4726 11.2974L32.0658 11.7038L37.3546 16.9877L37.7614 16.5813ZM32.8388 11.6632L28.6484 7.47671L28.2416 7.88316L32.4319 12.0696L32.8388 11.6632ZM27.6964 6.93206C27.3954 7.23284 27.3954 7.72058 27.6964 8.02949C27.9975 8.33839 28.4857 8.33026 28.7949 8.02949C29.1041 7.72871 29.0959 7.24097 28.7949 6.93206C28.4938 6.62315 28.0056 6.63128 27.6964 6.93206ZM32.8713 11.7526L31.3335 6.02973L30.7721 6.18418L32.3099 11.9071L32.8713 11.7526ZM30.7802 5.08676C30.3652 5.20056 30.1211 5.62328 30.235 6.03786C30.349 6.45244 30.7721 6.69632 31.187 6.58251C31.602 6.4687 31.8461 6.04599 31.7322 5.63141C31.6183 5.21682 31.1952 4.97295 30.7802 5.08676ZM32.676 11.5331L26.9479 9.99673L26.7933 10.5576L32.5214 12.094L32.676 11.5331ZM26.4027 10.956C26.8177 11.0698 27.2408 10.8178 27.3547 10.4113C27.4686 10.0049 27.2164 9.57401 26.8095 9.46021C26.4027 9.3464 25.9715 9.5984 25.8576 10.0049C25.7436 10.4113 25.9959 10.8422 26.4027 10.956ZM36.0853 19.6703L29.1773 16.8089L28.9576 17.3454L35.8656 20.2069L36.0853 19.6703ZM29.6492 17.004L24.1733 14.736L23.9536 15.2725L29.4295 17.5405L29.6492 17.004ZM23.083 14.5978C22.9202 14.9961 23.1074 15.4432 23.4979 15.6058C23.8885 15.7684 24.3441 15.5814 24.5069 15.1912C24.6696 14.801 24.4825 14.3458 24.0919 14.1832C23.7014 14.0206 23.2457 14.2076 23.083 14.5978ZM29.7062 17.0772L26.0935 12.3786L25.6297 12.7281L29.2424 17.4267L29.7062 17.0772ZM25.2229 11.7201C24.8812 11.9802 24.8161 12.468 25.0764 12.8013C25.3368 13.1346 25.825 13.2077 26.1586 12.9476C26.4922 12.6875 26.5654 12.1997 26.3051 11.8664C26.0447 11.5331 25.5565 11.46 25.2229 11.7201ZM29.519 17.5243L29.4458 16.9471L23.5712 17.7194L23.6444 18.2965L29.519 17.5243ZM23.4247 18.8168C23.8478 18.7599 24.1489 18.3697 24.0919 17.947C24.035 17.5243 23.6444 17.2235 23.2213 17.2804C22.7982 17.3373 22.4971 17.7275 22.5541 18.1502C22.611 18.5729 23.0016 18.8737 23.4247 18.8168ZM34.9461 23.1659H27.4767V23.743H34.9543V23.1659H34.9461ZM27.9812 23.1659H22.0659V23.743H27.9975V23.1659H27.9812ZM21 23.4585C21 23.8893 21.3499 24.2308 21.773 24.2308C22.1961 24.2308 22.546 23.8812 22.546 23.4585C22.546 23.0277 22.1961 22.6862 21.773 22.6862C21.3499 22.6862 21.0081 23.0195 21.0081 23.4504L21 23.4585ZM28.0707 23.2146L22.9365 20.2556L22.6436 20.7596L27.7778 23.7186L28.0707 23.2146ZM21.8788 19.9792C21.6672 20.3451 21.7893 20.8247 22.1635 21.036C22.5378 21.2474 23.0097 21.1255 23.2213 20.7515C23.4328 20.3776 23.3108 19.9061 22.9365 19.6947C22.5622 19.4834 22.0903 19.6053 21.8788 19.9792ZM28.0707 23.7024L27.7778 23.1984L22.6436 26.1574L22.9365 26.6614L28.0707 23.7024ZM22.9365 27.2223C23.3027 27.0109 23.4328 26.5394 23.2213 26.1655C23.0097 25.7915 22.5378 25.6696 22.1635 25.881C21.7893 26.0923 21.6672 26.5638 21.8788 26.9377C22.0903 27.3117 22.5622 27.4336 22.9365 27.2223ZM36.0771 27.2467L35.8574 26.7101L28.9495 29.5716L29.1691 30.1081L36.0771 27.2467ZM29.6411 29.913L29.4214 29.3765L23.9454 31.6445L24.1651 32.181L29.6411 29.913ZM23.0748 32.3111C23.2376 32.7094 23.6932 32.8964 24.0838 32.7257C24.4743 32.5549 24.6696 32.1078 24.4987 31.7177C24.3279 31.3275 23.8804 31.1324 23.4898 31.3031C23.0992 31.4738 22.904 31.9209 23.0748 32.3111ZM29.5109 29.3846L23.6363 28.6123L23.563 29.1895L29.4377 29.9618L29.5109 29.3846ZM22.546 28.7587C22.489 29.1814 22.7901 29.5716 23.2132 29.6285C23.6363 29.6854 24.0268 29.3846 24.0838 28.9619C24.1407 28.5392 23.8397 28.149 23.4166 28.0921C22.9935 28.0352 22.6029 28.336 22.546 28.7587ZM29.6899 29.8317L29.2261 29.4822L25.6135 34.1808L26.0772 34.5303L29.6899 29.8317ZM26.2969 35.0506C26.5573 34.7092 26.4922 34.2295 26.1505 33.9694C25.8087 33.7093 25.3287 33.7743 25.0683 34.1157C24.8079 34.4572 24.873 34.9368 25.2148 35.1969C25.5565 35.457 26.0366 35.392 26.2969 35.0506ZM37.7451 30.3357L37.3383 29.9293L32.0495 35.2132L32.4563 35.6196L37.7451 30.3357ZM32.8225 35.2538L32.4157 34.8474L28.2253 39.0338L28.6321 39.4403L32.8225 35.2538ZM27.6801 39.9849C27.9812 40.2857 28.4694 40.2857 28.7786 39.9849C29.0878 39.6842 29.0796 39.1964 28.7786 38.8875C28.4775 38.5786 27.9893 38.5867 27.6801 38.8875C27.371 39.1883 27.3791 39.676 27.6801 39.9849ZM32.6597 35.3757L32.5052 34.8148L26.777 36.3512L26.9316 36.9121L32.6597 35.3757ZM25.8413 36.904C25.9552 37.3186 26.3783 37.5625 26.7933 37.4487C27.2082 37.3349 27.4523 36.9121 27.3384 36.4976C27.2245 36.083 26.8014 35.8391 26.3864 35.9529C25.9715 36.0667 25.7274 36.4894 25.8413 36.904ZM32.855 35.1644L32.2936 35.0099L30.7558 40.7328L31.3172 40.8873L32.855 35.1644ZM31.7159 41.2775C31.8298 40.8629 31.5776 40.4402 31.1708 40.3264C30.7639 40.2126 30.3327 40.4646 30.2188 40.871C30.1049 41.2775 30.3571 41.7083 30.7639 41.8221C31.1708 41.9359 31.602 41.6839 31.7159 41.2775ZM40.9672 32.5956L40.4302 32.3761L37.5661 39.2777L38.1031 39.4972L40.9672 32.5956ZM38.2984 39.0257L37.7614 38.8062L35.4913 44.2771L36.0283 44.4966L38.2984 39.0257ZM35.3611 45.3583C35.7598 45.5208 36.2073 45.3339 36.37 44.9437C36.5328 44.5535 36.3456 44.0983 35.9551 43.9357C35.5645 43.7731 35.1089 43.9601 34.9461 44.3503C34.7834 44.7405 34.9705 45.1957 35.3611 45.3583ZM38.1926 39.1964L37.8428 38.7331L33.1398 42.3424L33.4897 42.8057L38.1926 39.1964ZM32.4807 43.2122C32.7411 43.5536 33.2293 43.6186 33.5629 43.3585C33.8965 43.0984 33.9697 42.6106 33.7094 42.2773C33.449 41.944 32.9608 41.8709 32.6272 42.131C32.2936 42.3911 32.2204 42.8789 32.4807 43.2122ZM39.0633 44.7974L38.2903 38.9282L37.7126 39.0013L38.4856 44.8705L39.0633 44.7974ZM39.5759 45.0087C39.5189 44.586 39.1283 44.2852 38.7052 44.3421C38.2821 44.399 37.9811 44.7892 38.038 45.2119C38.095 45.6347 38.4856 45.9354 38.9087 45.8785C39.3318 45.8216 39.6328 45.4314 39.5759 45.0087Z" fill="url(#paint0_linear_130_450)"/>
</g>
<defs>
<linearGradient id="paint0_linear_130_450" x1="34.5544" y1="-0.538574" x2="34.5544" y2="47.4231" gradientUnits="userSpaceOnUse">
<stop stop-color="#1E1E1E"/>
<stop offset="1" stop-color="#4E75FF"/>
</linearGradient>
</defs>
</svg>
