<svg width="32" height="33" viewBox="0 0 32 33" fill="none" xmlns="http://www.w3.org/2000/svg">
<path d="M22.31 8.44238C21.53 8.44238 20.9 9.07238 20.9 9.85238C20.9 10.6324 21.53 11.2624 22.31 11.2624C23.09 11.2624 23.72 10.6324 23.72 9.85238C23.72 9.07238 23.09 8.44238 22.31 8.44238Z" fill="#0C0421"/>
<path d="M16.04 9.77246C12.59 9.77246 9.79004 12.5725 9.79004 16.0225C9.79004 19.4725 12.59 22.2725 16.04 22.2725C19.49 22.2725 22.29 19.4725 22.29 16.0225C22.29 12.5725 19.49 9.77246 16.04 9.77246ZM16.04 20.0325C13.83 20.0325 12.04 18.2325 12.04 16.0325C12.04 13.8325 13.84 12.0325 16.04 12.0325C18.24 12.0325 20.04 13.8325 20.04 16.0325C20.04 18.2325 18.24 20.0325 16.04 20.0325Z" fill="#0C0421"/>
<path d="M20.77 4.02246H11.23C7.24 4.02246 4 7.26246 4 11.2525V20.7925C4 24.7825 7.24 28.0225 11.23 28.0225H20.77C24.76 28.0225 28 24.7825 28 20.7925V11.2525C28 7.26246 24.76 4.02246 20.77 4.02246ZM25.74 20.7925C25.74 23.5325 23.52 25.7525 20.77 25.7525H11.23C8.49 25.7525 6.26 23.5325 6.26 20.7925V11.2525C6.26 8.51246 8.48 6.29246 11.23 6.29246H20.77C23.51 6.29246 25.74 8.51246 25.74 11.2525V20.7925Z" fill="#0C0421"/>
</svg>
