<svg width="182" height="104" viewBox="0 0 182 104" fill="none" xmlns="http://www.w3.org/2000/svg">
<path d="M129.097 90.0887L129.097 87.8965L157.445 87.8965L157.445 90.0887L129.097 90.0887ZM177.99 90.0887L177.99 87.8965L155.502 87.8965L155.502 90.0887L177.959 90.0887L177.99 90.0887ZM182 88.9771C182 87.3407 180.674 86.0439 179.069 86.0439C177.465 86.0439 176.139 87.3716 176.139 88.9771C176.139 90.5827 177.465 91.9104 179.069 91.9104C180.674 91.9104 182 90.5827 182 88.9771ZM174.658 101.142L175.769 99.228L156.304 87.9891L155.194 89.9034L174.658 101.142ZM178.668 102.192C179.471 100.803 179.008 98.981 177.589 98.1782C176.17 97.3754 174.381 97.8385 173.579 99.2588C172.777 100.679 173.239 102.47 174.658 103.273C176.077 104.075 177.866 103.612 178.668 102.192ZM156.304 89.9652L175.769 78.7263L174.658 76.812L155.194 88.0509L156.304 89.9652ZM174.658 74.6816C173.27 75.4844 172.777 77.2752 173.579 78.6954C174.381 80.1157 176.17 80.5789 177.589 79.7761C179.008 78.9733 179.471 77.1825 178.668 75.7622C177.866 74.3419 176.077 73.8788 174.658 74.6816ZM52.8726 90.0887L52.8726 87.8965L24.5237 87.8965L24.5237 90.0887L52.8726 90.0887ZM26.4671 90.0887L26.4671 87.8965L3.97932 87.8965L3.97932 90.0887L26.4671 90.0887ZM-3.85455e-06 88.9771C-3.92608e-06 90.6136 1.32644 91.9104 2.93051 91.9104C4.53458 91.9104 5.86102 90.5827 5.86102 88.9771C5.86102 87.3716 4.53458 86.0439 2.93051 86.0439C1.32644 86.0439 -3.78437e-06 87.3716 -3.85455e-06 88.9771ZM25.6959 89.9652L26.8065 88.0509L7.3417 76.812L6.2312 78.7263L25.6959 89.9652ZM3.33154 75.7622C2.52951 77.1516 2.99221 78.9733 4.41119 79.7761C5.83017 80.5789 7.61933 80.1157 8.42137 78.6954C9.2234 77.2751 8.76069 75.4843 7.3417 74.6816C5.92272 73.8788 4.13357 74.3419 3.33154 75.7622ZM7.3417 101.142L26.8065 89.9034L25.6959 87.9891L6.2312 99.228L7.3417 101.142ZM7.3417 103.273C8.72984 102.47 9.2234 100.679 8.42137 99.2588C7.61933 97.8385 5.83017 97.3754 4.41119 98.1782C2.99221 98.981 2.5295 100.772 3.33154 102.192C4.13357 103.612 5.92272 104.075 7.3417 103.273ZM125.642 76.6268L151.831 65.7584L150.998 63.7206L124.809 74.5889L125.642 76.6268ZM150.042 66.4994L170.802 57.8851L169.969 55.8472L149.209 64.4616L150.042 66.4994ZM174.072 55.3532C173.455 53.8403 171.728 53.1302 170.247 53.7786C168.766 54.4269 168.026 56.1251 168.674 57.6072C169.322 59.0892 171.018 59.8302 172.499 59.1818C173.98 58.5334 174.72 56.8353 174.072 55.3532ZM171.944 69.4018L172.221 67.2096L149.949 64.2764L149.672 66.4686L171.944 69.4018ZM176.046 68.846C176.262 67.2405 175.121 65.7584 173.517 65.5423C171.913 65.3262 170.432 66.4686 170.216 68.0741C170 69.6797 171.142 71.1617 172.746 71.3779C174.35 71.594 175.831 70.4516 176.046 68.846ZM150.69 66.0981L164.386 48.2518L162.628 46.9241L148.932 64.7704L150.69 66.0981ZM161.826 44.948C160.839 46.2448 161.085 48.0665 162.381 49.0545C163.677 50.0426 165.497 49.7956 166.484 48.4988C167.471 47.202 167.224 45.3803 165.928 44.3923C164.633 43.4042 162.813 43.6512 161.826 44.948ZM117.035 64.3999L137.086 44.3305L135.544 42.7867L115.493 62.8561L117.035 64.3999ZM135.698 45.7199L151.584 29.8188L150.042 28.275L134.156 44.1761L135.698 45.7199ZM153.651 26.2063C152.51 25.0639 150.659 25.0639 149.487 26.2063C148.315 27.3487 148.345 29.2013 149.487 30.3746C150.628 31.5479 152.479 31.517 153.651 30.3746C154.823 29.2322 154.793 27.3796 153.651 26.2063ZM135.359 45.8434L157.075 40.0079L156.489 37.8774L134.773 43.713L135.359 45.8434ZM160.654 37.9083C160.222 36.3336 158.618 35.4074 157.044 35.8396C155.471 36.2719 154.546 37.8774 154.978 39.4521C155.409 41.0268 157.014 41.9531 158.587 41.5208C160.16 41.0885 161.085 39.483 160.654 37.9083ZM136.192 45.1024L142.022 23.3657L139.893 22.7791L134.063 44.5158L136.192 45.1024ZM138.382 21.297C137.95 22.8717 138.906 24.4773 140.448 24.9095C141.991 25.3418 143.626 24.3846 144.058 22.8408C144.489 21.297 143.533 19.6606 141.991 19.2284C140.448 18.7961 138.814 19.7532 138.382 21.297ZM105.313 58.0394L116.172 31.8257L114.136 30.9921L103.277 57.2058L105.313 58.0394ZM115.431 33.6166L124.038 12.837L122.002 12.0034L113.395 32.7829L115.431 33.6166ZM124.562 8.69965C123.051 8.08213 121.354 8.79228 120.737 10.2743C120.12 11.7564 120.829 13.4854 122.31 14.1029C123.791 14.7205 125.518 14.0103 126.135 12.5283C126.752 11.0462 126.043 9.31717 124.562 8.69965ZM115.154 33.8327L132.983 20.1238L131.657 18.3638L113.827 32.0728L115.154 33.8327ZM135.482 16.82C134.495 15.5232 132.644 15.2762 131.379 16.2643C130.115 17.2523 129.837 19.1049 130.824 20.3708C131.811 21.6367 133.662 21.9146 134.927 20.9265C136.192 19.9385 136.469 18.0859 135.482 16.82ZM113.457 33.1225L115.647 32.8447L112.717 10.5522L110.526 10.8301L113.457 33.1225ZM108.552 9.99644C108.768 11.602 110.249 12.7444 111.853 12.5283C113.457 12.3121 114.598 10.8301 114.382 9.22454C114.166 7.61899 112.686 6.47658 111.082 6.69271C109.478 6.90885 108.336 8.39089 108.552 9.99644ZM92.0488 53.7168L92.0488 25.3727L89.8586 25.3727L89.8586 53.7477L92.0488 53.7477L92.0488 53.7168ZM92.0488 27.287L92.0488 4.84016L89.8586 4.84016L89.8586 27.3487L92.0488 27.3487L92.0488 27.287ZM90.9383 0.795406C89.3034 0.795406 88.0078 2.12307 88.0078 3.72862C88.0078 5.33417 89.3342 6.66184 90.9383 6.66184C92.5732 6.66184 93.8688 5.33417 93.8688 3.72862C93.8688 2.12307 92.6041 0.826282 90.9692 0.826282L90.9383 0.795406ZM91.8637 27.6266L103.092 8.14388L101.18 7.03235L89.9512 26.5151L91.8637 27.6266ZM104.141 4.13001C102.753 3.32724 100.933 3.79037 100.131 5.21067C99.3288 6.63096 99.7915 8.42177 101.211 9.22454C102.629 10.0273 104.419 9.56418 105.221 8.14388C106.023 6.72359 105.56 4.93279 104.141 4.13001ZM90.0129 27.6266L91.9254 26.5151L80.697 7.03235L78.7844 8.14388L90.0129 27.6266ZM76.6559 8.14388C77.458 9.5333 79.2471 10.0273 80.6661 9.22454C82.0851 8.42177 82.5478 6.63096 81.7458 5.21067C80.9437 3.79037 79.1546 3.32723 77.7356 4.13001C76.3166 4.93278 75.8539 6.72359 76.6559 8.14388ZM76.5634 58.0086L78.5993 57.1749L67.741 30.9612L65.7051 31.7949L76.5634 58.0086ZM66.4454 33.5857L68.4814 32.752L59.8749 11.9725L57.839 12.8062L66.4454 33.5857ZM57.3454 8.66877C55.8339 9.28629 55.1244 11.0153 55.7722 12.4974C56.42 13.9794 58.1166 14.7205 59.5973 14.0721C61.078 13.4237 61.8183 11.7255 61.1705 10.2434C60.5227 8.7614 58.8261 8.02038 57.3454 8.66877ZM68.4505 33.0917L71.381 10.7992L69.1908 10.5213L66.2604 32.8138L68.4505 33.0917ZM70.8258 6.66184C69.2217 6.44571 67.741 7.58812 67.5251 9.19367C67.3092 10.7992 68.4505 12.2813 70.0546 12.4974C71.6587 12.7135 73.1393 11.5711 73.3553 9.96556C73.5712 8.36002 72.4298 6.87797 70.8258 6.66184ZM66.7539 33.7709L68.0804 32.011L50.2505 18.3021L48.9241 20.062L66.7539 33.7709ZM46.9498 20.8957C48.2454 21.8837 50.0654 21.6367 51.0526 20.3399C52.0397 19.0431 51.7929 17.2214 50.4973 16.2334C49.2017 15.2454 47.3817 15.4924 46.3946 16.7892C45.4075 18.0859 45.6543 19.9076 46.9498 20.8957ZM64.8414 64.3381L66.3837 62.7943L46.3329 42.725L44.7905 44.2688L64.8414 64.3381ZM46.1786 45.6582L47.721 44.1144L31.8346 28.2133L30.2922 29.7571L46.1786 45.6582ZM28.2254 26.1446C27.0841 27.287 27.0841 29.1395 28.2254 30.3128C29.3668 31.4861 31.2176 31.4552 32.3898 30.3128C33.562 29.1704 33.5312 27.3179 32.3898 26.1446C31.2485 24.9713 29.3976 25.0022 28.2254 26.1446ZM45.7159 45.0407L47.8444 44.454L42.0143 22.7173L39.8858 23.304L45.7159 45.0407ZM39.9166 19.1666C38.3434 19.5989 37.418 21.2044 37.8498 22.7791C38.2817 24.3538 39.8858 25.28 41.459 24.8478C43.0322 24.4155 43.9576 22.81 43.5258 21.2353C43.0939 19.6606 41.4898 18.7343 39.9166 19.1666ZM46.518 45.7817L47.1041 43.6512L25.3875 37.8157L24.8014 39.9461L46.518 45.7817ZM23.3207 41.459C24.8939 41.8913 26.498 40.9341 26.9298 39.3904C27.3617 37.8466 26.4054 36.2101 24.8631 35.7779C23.3207 35.3456 21.6858 36.3028 21.2539 37.8466C20.8221 39.3903 21.7783 41.0268 23.3207 41.459ZM56.2658 76.565L57.0987 74.5272L30.9092 63.6589L30.0763 65.6967L56.2658 76.565ZM31.8654 66.4377L32.6983 64.3999L11.938 55.7855L11.1051 57.8233L31.8654 66.4377ZM7.83526 55.2915C7.21831 56.8044 7.92781 58.5026 9.40849 59.1201C10.8892 59.7376 12.6166 59.0275 13.2336 57.5454C13.8505 56.0634 13.141 54.3343 11.6604 53.7168C10.1797 53.0993 8.45221 53.8094 7.83526 55.2915ZM31.2176 66.0363L32.9759 64.7086L19.2797 46.8623L17.5214 48.19L31.2176 66.0363ZM15.979 44.3614C14.6834 45.3494 14.4366 47.202 15.4237 48.4679C16.4109 49.7338 18.2617 50.0117 19.5265 49.0236C20.7912 48.0356 21.0688 46.1831 20.0817 44.9171C19.0946 43.6512 17.2437 43.3734 15.979 44.3614ZM9.96374 69.34L32.2356 66.4068L31.958 64.2146L9.68611 67.1478L9.96374 69.34ZM9.16171 71.2852C10.7658 71.0691 11.9071 69.587 11.6912 67.9815C11.4753 66.3759 9.99458 65.2335 8.39052 65.4497C6.78645 65.6658 5.64509 67.1478 5.86102 68.7534C6.07695 70.3589 7.55764 71.5013 9.16171 71.2852Z" fill="url(#paint0_linear_701_1385)" fill-opacity="0.8"/>
<defs>
<linearGradient id="paint0_linear_701_1385" x1="182" y1="52.2302" x2="-2.24829e-06" y2="52.2302" gradientUnits="userSpaceOnUse">
<stop stop-color="#E0EFD0" stop-opacity="0.2"/>
<stop offset="1" stop-color="#4E75FF"/>
</linearGradient>
</defs>
</svg>
