<svg width="103" height="183" viewBox="0 0 103 183" fill="none" xmlns="http://www.w3.org/2000/svg">
<path d="M13.5935 129.293L15.7885 129.293L15.7885 157.642L13.5935 157.642L13.5935 129.293ZM13.5935 178.186L15.7885 178.186L15.7885 155.698L13.5935 155.698L13.5935 178.155L13.5935 178.186ZM14.7064 182.196C16.3449 182.196 17.6434 180.87 17.6434 179.266C17.6434 177.662 16.314 176.335 14.7064 176.335C13.0989 176.335 11.7695 177.662 11.7695 179.266C11.7695 180.87 13.0989 182.196 14.7064 182.196ZM2.52589 174.855L4.44263 175.965L15.6957 156.5L13.779 155.39L2.52589 174.855ZM1.47478 178.865C2.86596 179.667 4.68995 179.204 5.49374 177.785C6.29753 176.366 5.83381 174.577 4.41171 173.775C2.98962 172.973 1.19655 173.436 0.392754 174.855C-0.411041 176.274 0.0526813 178.063 1.47478 178.865ZM13.7172 156.5L24.9703 175.965L26.887 174.855L15.6339 155.39L13.7172 156.5ZM29.0201 174.855C28.2163 173.466 26.4233 172.973 25.0012 173.775C23.5791 174.577 23.1154 176.366 23.9192 177.785C24.7229 179.204 26.516 179.667 27.9381 178.865C29.3602 178.063 29.8239 176.274 29.0201 174.855ZM13.5935 53.0689L15.7885 53.0689L15.7885 24.72L13.5935 24.72L13.5935 53.0689ZM13.5935 26.6634L15.7885 26.6634L15.7885 4.17562L13.5935 4.17562L13.5935 26.6634ZM14.7065 0.196297C13.068 0.196296 11.7695 1.52274 11.7695 3.12681C11.7695 4.73087 13.0989 6.05732 14.7065 6.05732C16.314 6.05732 17.6434 4.73087 17.6434 3.12681C17.6434 1.52274 16.314 0.196297 14.7065 0.196297ZM13.7172 25.8922L15.6339 27.0028L26.887 7.538L24.9703 6.42748L13.7172 25.8922ZM27.9381 3.52784C26.5469 2.72579 24.723 3.1885 23.9192 4.60749C23.1154 6.02647 23.5791 7.81564 25.0012 8.61767C26.4233 9.4197 28.2164 8.95698 29.0202 7.538C29.824 6.11901 29.3602 4.32987 27.9381 3.52784ZM2.52591 7.538L13.779 27.0028L15.6957 25.8922L4.44264 6.42748L2.52591 7.538ZM0.392769 7.538C1.19656 8.92614 2.98964 9.4197 4.41173 8.61767C5.83382 7.81563 6.29755 6.02647 5.49375 4.60749C4.68996 3.1885 2.89689 2.72579 1.47479 3.52784C0.0526965 4.32987 -0.411026 6.11901 0.392769 7.538ZM27.0725 125.838L37.9546 152.027L39.995 151.195L29.1129 125.005L27.0725 125.838ZM37.2126 150.238L45.838 170.999L47.8784 170.166L39.253 149.405L37.2126 150.238ZM48.373 174.268C49.8878 173.652 50.5989 171.924 49.9497 170.443C49.3005 168.963 47.6001 168.222 46.1162 168.87C44.6323 169.518 43.8903 171.215 44.5395 172.695C45.1887 174.176 46.8891 174.916 48.373 174.268ZM34.3066 172.14L36.5016 172.418L39.4385 150.146L37.2436 149.868L34.3066 172.14ZM34.8631 176.243C36.4707 176.459 37.9546 175.317 38.171 173.713C38.3874 172.109 37.2436 170.628 35.636 170.413C34.0284 170.197 32.5445 171.338 32.3281 172.942C32.1116 174.546 33.2555 176.027 34.8631 176.243ZM37.6145 150.886L55.4835 164.582L56.8128 162.824L38.9439 149.128L37.6145 150.886ZM58.7914 162.022C57.493 161.035 55.669 161.282 54.6797 162.577C53.6904 163.873 53.9377 165.693 55.2362 166.68C56.5346 167.667 58.3586 167.42 59.3479 166.125C60.3371 164.829 60.0898 163.009 58.7914 162.022ZM39.3149 117.232L59.4097 137.282L60.9555 135.74L40.8606 115.689L39.3149 117.232ZM58.0185 135.894L73.9398 151.781L75.4856 150.238L59.5643 134.352L58.0185 135.894ZM77.5569 153.847C78.7007 152.706 78.7007 150.855 77.5569 149.683C76.413 148.511 74.5581 148.542 73.3833 149.683C72.2086 150.824 72.2395 152.675 73.3833 153.847C74.5272 155.02 76.3821 154.989 77.5569 153.847ZM57.8949 135.555L63.7378 157.272L65.871 156.685L60.028 134.969L57.8949 135.555ZM65.84 160.85C67.4167 160.418 68.3442 158.814 67.9114 157.241C67.4785 155.667 65.871 154.742 64.2943 155.174C62.7176 155.606 61.7902 157.21 62.223 158.783C62.6558 160.356 64.2634 161.282 65.84 160.85ZM58.6368 136.388L80.4011 142.218L80.9884 140.09L59.2242 134.259L58.6368 136.388ZM82.4724 138.578C80.8957 138.146 79.2881 139.102 78.8553 140.645C78.4225 142.187 79.3809 143.822 80.9266 144.254C82.4724 144.686 84.1109 143.73 84.5437 142.187C84.9765 140.645 84.0181 139.01 82.4724 138.578ZM45.6834 105.51L71.9303 116.368L72.765 114.332L46.5181 103.474L45.6834 105.51ZM70.1372 115.627L90.9431 124.234L91.7778 122.198L70.9719 113.592L70.1372 115.627ZM95.0857 124.758C95.704 123.247 94.993 121.55 93.5091 120.933C92.0251 120.316 90.2939 121.026 89.6756 122.506C89.0573 123.987 89.7683 125.715 91.2523 126.332C92.7362 126.948 94.4674 126.239 95.0857 124.758ZM69.9208 115.35L83.6471 133.18L85.4093 131.853L71.683 114.023L69.9208 115.35ZM86.9551 135.678C88.2535 134.691 88.5008 132.84 87.5115 131.576C86.5222 130.311 84.6673 130.033 83.3998 131.02C82.1323 132.007 81.8541 133.858 82.8434 135.123C83.8326 136.388 85.6875 136.665 86.9551 135.678ZM70.6319 113.653L70.9101 115.843L93.2308 112.913L92.9526 110.723L70.6319 113.653ZM93.7873 108.749C92.1797 108.964 91.0359 110.445 91.2523 112.049C91.4687 113.653 92.9526 114.795 94.5602 114.579C96.1678 114.363 97.3116 112.882 97.0952 111.278C96.8788 109.674 95.3949 108.533 93.7873 108.749ZM50.0115 92.2451L78.3916 92.2451L78.3916 90.0549L49.9806 90.0549L49.9806 92.2451L50.0115 92.2451ZM76.4748 92.2451L98.9501 92.2451L98.9501 90.0549L76.413 90.0549L76.413 92.2451L76.4748 92.2451ZM103 91.1346C103 89.4997 101.671 88.2041 100.063 88.2041C98.4555 88.2041 97.1261 89.5305 97.1261 91.1346C97.1261 92.7695 98.4555 94.0651 100.063 94.0651C101.671 94.0651 102.969 92.8004 102.969 91.1655L103 91.1346ZM76.1348 92.06L95.6422 103.289L96.7552 101.376L77.2477 90.1475L76.1348 92.06ZM99.6612 104.337C100.465 102.949 100.001 101.129 98.5791 100.327C97.1571 99.5251 95.364 99.9878 94.5602 101.407C93.7564 102.826 94.2201 104.615 95.6422 105.417C97.0643 106.219 98.8574 105.756 99.6612 104.337ZM76.1348 90.2092L77.2477 92.1217L96.7552 80.8932L95.6422 78.9807L76.1348 90.2092ZM95.6422 76.8522C94.251 77.6543 93.7564 79.4434 94.5602 80.8624C95.364 82.2814 97.1571 82.7441 98.5791 81.9421C100.001 81.14 100.465 79.3509 99.6612 77.9319C98.8574 76.5129 97.0643 76.0502 95.6422 76.8522ZM45.7143 76.7597L46.549 78.7956L72.7959 67.9373L71.9612 65.9014L45.7143 76.7597ZM70.1682 66.6417L71.0029 68.6777L91.8087 60.0712L90.974 58.0353L70.1682 66.6417ZM95.1167 57.5417C94.4984 56.0302 92.7671 55.3207 91.2832 55.9685C89.7993 56.6163 89.0573 58.3129 89.7065 59.7936C90.3557 61.2743 92.0561 62.0146 93.54 61.3668C95.0239 60.719 95.7659 59.0224 95.1167 57.5417ZM70.6628 68.6468L92.9835 71.5773L93.2617 69.3872L70.941 66.4566L70.6628 68.6468ZM97.1261 71.0221C97.3425 69.418 96.1987 67.9373 94.5911 67.7214C92.9835 67.5055 91.4996 68.6468 91.2832 70.2509C91.0668 71.855 92.2106 73.3356 93.8182 73.5516C95.4258 73.7675 96.9097 72.6261 97.1261 71.0221ZM69.9827 66.9502L71.7448 68.2766L85.4711 50.4468L83.709 49.1204L69.9827 66.9502ZM82.8743 47.1461C81.885 48.4417 82.1323 50.2617 83.4307 51.2489C84.7292 52.236 86.5532 51.9892 87.5425 50.6936C88.5317 49.398 88.2844 47.578 86.986 46.5909C85.6876 45.6038 83.8636 45.8505 82.8743 47.1461ZM39.3767 65.0377L40.9225 66.58L61.0173 46.5292L59.4715 44.9868L39.3767 65.0377ZM58.0804 46.375L59.6261 47.9173L75.5474 32.0309L74.0016 30.4885L58.0804 46.375ZM77.6187 28.4217C76.4748 27.2804 74.6199 27.2804 73.4452 28.4217C72.2704 29.5631 72.3013 31.4139 73.4452 32.5861C74.589 33.7583 76.4439 33.7275 77.6187 32.5861C78.7935 31.4448 78.7626 29.5939 77.6187 28.4217ZM58.6987 45.9122L59.286 48.0407L81.0503 42.2106L80.4629 40.0821L58.6987 45.9122ZM84.6055 40.1129C84.1727 38.5397 82.5651 37.6143 80.9885 38.0461C79.4118 38.478 78.4843 40.0821 78.9171 41.6553C79.35 43.2285 80.9575 44.1539 82.5342 43.7221C84.1109 43.2902 85.0383 41.6861 84.6055 40.1129ZM57.9567 46.7143L60.0898 47.3004L65.9328 25.5838L63.7997 24.9977L57.9567 46.7143ZM62.2848 23.517C61.852 25.0902 62.8104 26.6943 64.3561 27.1261C65.9019 27.558 67.5404 26.6017 67.9732 25.0594C68.406 23.517 67.4476 21.8821 65.9019 21.4502C64.3561 21.0184 62.7176 21.9746 62.2848 23.517ZM27.1343 56.4621L29.1747 57.2949L40.0568 31.1054L38.0164 30.2726L27.1343 56.4621ZM37.2745 32.0617L39.3149 32.8946L47.9402 12.1343L45.8998 11.3014L37.2745 32.0617ZM48.4348 8.03157C46.92 7.41461 45.2197 8.12411 44.6014 9.60479C43.9831 11.0855 44.6941 12.8129 46.178 13.4299C47.662 14.0468 49.3932 13.3373 50.0115 11.8567C50.6298 10.376 49.9188 8.64851 48.4348 8.03157ZM37.6764 31.4139L39.0057 33.1722L56.8747 19.476L55.5453 17.7177L37.6764 31.4139ZM59.3788 16.1753C58.3895 14.8797 56.5346 14.6329 55.2671 15.62C53.9996 16.6072 53.7213 18.458 54.7106 19.7227C55.6999 20.9875 57.5548 21.2651 58.8223 20.278C60.0898 19.2909 60.3681 17.44 59.3788 16.1753ZM34.3685 10.16L37.3054 32.4319L39.5004 32.1543L36.5634 9.88241L34.3685 10.16ZM32.4208 9.358C32.6372 10.9621 34.1211 12.1034 35.7287 11.8875C37.3363 11.6716 38.4802 10.1909 38.2638 8.58682C38.0474 6.98275 36.5634 5.84139 34.9559 6.05732C33.3483 6.27326 32.2044 7.75393 32.4208 9.358Z" fill="url(#paint0_linear_701_1091)" fill-opacity="0.8"/>
<defs>
<linearGradient id="paint0_linear_701_1091" x1="51.5" y1="182.196" x2="51.5" y2="0.1963" gradientUnits="userSpaceOnUse">
<stop stop-color="#E0EFD0" stop-opacity="0.2"/>
<stop offset="1" stop-color="#4E75FF"/>
</linearGradient>
</defs>
</svg>
