<svg width="103" height="183" viewBox="0 0 103 183" fill="none" xmlns="http://www.w3.org/2000/svg">
<path d="M89.4236 53.0997H87.2314V24.7509H89.4236V53.0997ZM89.4236 4.20646H87.2314V26.6943H89.4236V4.23731V4.20646ZM88.3121 0.196289C86.6757 0.196289 85.3789 1.52273 85.3789 3.1268C85.3789 4.73087 86.7066 6.05731 88.3121 6.05731C89.9177 6.05731 91.2453 4.73087 91.2453 3.1268C91.2453 1.52273 89.9177 0.196289 88.3121 0.196289ZM100.477 7.53798L98.5629 6.42747L87.3241 25.8922L89.2384 27.0027L100.477 7.53798ZM101.527 3.52781C100.138 2.72578 98.3159 3.18849 97.5131 4.60748C96.7104 6.02646 97.1735 7.81561 98.5938 8.61764C100.014 9.41968 101.805 8.95697 102.608 7.53798C103.41 6.119 102.947 4.32985 101.527 3.52781ZM89.3001 25.8922L78.0613 6.42747L76.147 7.53798L87.3858 27.0027L89.3001 25.8922ZM74.0165 7.53798C74.8193 8.92612 76.6101 9.41968 78.0304 8.61764C79.4507 7.81561 79.9138 6.02646 79.1111 4.60748C78.3083 3.18849 76.5175 2.72578 75.0972 3.52781C73.6769 4.32985 73.2138 6.119 74.0165 7.53798ZM89.4236 129.324H87.2314V157.673H89.4236V129.324ZM89.4236 155.729H87.2314L87.2314 178.217H89.4236L89.4236 155.729ZM88.3121 182.196C89.9485 182.196 91.2453 180.87 91.2453 179.266C91.2453 177.662 89.9177 176.335 88.3121 176.335C86.7066 176.335 85.3789 177.662 85.3789 179.266C85.3789 180.87 86.7066 182.196 88.3121 182.196ZM89.3001 156.5L87.3858 155.39L76.147 174.855L78.0613 175.965L89.3001 156.5ZM75.0972 178.865C76.4866 179.667 78.3083 179.204 79.1111 177.785C79.9138 176.366 79.4507 174.577 78.0304 173.775C76.6101 172.973 74.8193 173.436 74.0165 174.855C73.2138 176.274 73.6769 178.063 75.0972 178.865ZM100.477 174.855L89.2384 155.39L87.3241 156.5L98.5629 175.965L100.477 174.855ZM102.608 174.855C101.805 173.466 100.014 172.973 98.5938 173.775C97.1735 174.577 96.7104 176.366 97.5131 177.785C98.3159 179.204 100.107 179.667 101.527 178.865C102.947 178.063 103.41 176.274 102.608 174.855ZM75.9617 56.5546L65.0934 30.3651L63.0556 31.198L73.9239 57.3875L75.9617 56.5546ZM65.8344 32.1543L57.22 11.3939L55.1822 12.2268L63.7966 32.9871L65.8344 32.1543ZM54.6882 8.12408C53.1753 8.74103 52.4651 10.4685 53.1135 11.9492C53.7619 13.4298 55.4601 14.1702 56.9421 13.5224C58.4242 12.8746 59.1652 11.178 58.5168 9.69731C57.8684 8.21663 56.1702 7.47629 54.6882 8.12408ZM68.7367 10.2526L66.5446 9.97493L63.6113 32.2468L65.8035 32.5244L68.7367 10.2526ZM68.181 6.14985C66.5754 5.93392 65.0934 7.07527 64.8773 8.67934C64.6611 10.2834 65.8035 11.7641 67.4091 11.98C69.0146 12.1959 70.4967 11.0546 70.7128 9.45053C70.9289 7.84646 69.7865 6.36578 68.181 6.14985ZM65.433 31.5065L47.5867 17.8102L46.2591 19.5685L64.1054 33.2648L65.433 31.5065ZM44.283 20.3705C45.5798 21.3576 47.4015 21.1109 48.3895 19.8153C49.3775 18.5197 49.1305 16.6997 47.8337 15.7126C46.5369 14.7254 44.7153 14.9722 43.7272 16.2678C42.7392 17.5634 42.9862 19.3834 44.283 20.3705ZM63.7348 65.161L43.6655 45.1102L42.1217 46.6526L62.191 66.7034L63.7348 65.161ZM45.0549 46.4983L29.1538 30.6119L27.61 32.1543L43.5111 48.0407L45.0549 46.4983ZM25.5413 28.5451C24.3989 29.6865 24.3989 31.5373 25.5413 32.7095C26.6837 33.8817 28.5363 33.8509 29.7095 32.7095C30.8828 31.5682 30.8519 29.7173 29.7095 28.5451C28.5671 27.3729 26.7146 27.4037 25.5413 28.5451ZM45.1784 46.8376L39.3428 25.121L37.2124 25.7071L43.048 47.4237L45.1784 46.8376ZM37.2433 21.5427C35.6686 21.9746 34.7423 23.5787 35.1746 25.1519C35.6068 26.7251 37.2124 27.6505 38.7871 27.2187C40.3617 26.7868 41.288 25.1827 40.8558 23.6095C40.4235 22.0363 38.8179 21.1109 37.2433 21.5427ZM44.4374 46.0048L22.7007 40.1746L22.1141 42.3031L43.8507 48.1332L44.4374 46.0048ZM20.632 43.8146C22.2067 44.2465 23.8122 43.2902 24.2445 41.7478C24.6768 40.2054 23.7196 38.5705 22.1758 38.1387C20.632 37.7068 18.9956 38.6631 18.5633 40.2054C18.1311 41.7478 19.0882 43.3827 20.632 43.8146ZM57.3744 76.8831L31.1607 66.0248L30.3271 68.0607L56.5407 78.919L57.3744 76.8831ZM32.9515 66.7651L12.172 58.1587L11.3383 60.1946L32.1179 68.801L32.9515 66.7651ZM8.03462 57.6343C7.4171 59.1458 8.12724 60.8424 9.60929 61.4593C11.0913 62.0763 12.8204 61.3668 13.4379 59.8861C14.0554 58.4054 13.3453 56.678 11.8632 56.061C10.3812 55.4441 8.65213 56.1536 8.03462 57.6343ZM33.1676 67.0427L19.4587 49.2129L17.6988 50.5393L31.4077 68.3692L33.1676 67.0427ZM16.155 46.7143C14.8582 47.7014 14.6112 49.5522 15.5992 50.817C16.5873 52.0817 18.4398 52.3593 19.7057 51.3722C20.9716 50.3851 21.2495 48.5343 20.2615 47.2695C19.2735 46.0048 17.4209 45.7271 16.155 46.7143ZM32.4575 68.7393L32.1796 66.5492L9.88717 69.4797L10.1651 71.6698L32.4575 68.7393ZM9.33141 73.6441C10.937 73.4281 12.0794 71.9475 11.8632 70.3434C11.6471 68.7393 10.1651 67.598 8.55951 67.8139C6.95396 68.0298 5.81155 69.5105 6.02768 71.1146C6.24381 72.7187 7.72586 73.86 9.33141 73.6441ZM53.0518 90.1475H24.7076V92.3376H53.0826V90.1475H53.0518ZM26.6219 90.1475H4.17512L4.17512 92.3376H26.6837V90.1475H26.6219ZM0.130371 91.258C0.130371 92.8929 1.45804 94.1885 3.06359 94.1885C4.66914 94.1885 5.9968 92.8621 5.9968 91.258C5.9968 89.6231 4.66914 88.3275 3.06359 88.3275C1.45804 88.3275 0.161247 89.5922 0.161247 91.2271L0.130371 91.258ZM26.9616 90.3326L7.47885 79.1041L6.36731 81.0166L25.85 92.2451L26.9616 90.3326ZM3.46497 78.0553C2.6622 79.4434 3.12534 81.2634 4.54563 82.0654C5.96593 82.8675 7.75673 82.4048 8.55951 80.9858C9.36228 79.5668 8.89914 77.7776 7.47885 76.9756C6.05855 76.1736 4.26775 76.6363 3.46497 78.0553ZM26.9616 92.1834L25.85 90.2709L6.36731 101.499L7.47885 103.412L26.9616 92.1834ZM7.47885 105.54C8.86827 104.738 9.36228 102.949 8.55951 101.53C7.75673 100.111 5.96593 99.6485 4.54563 100.451C3.12534 101.253 2.6622 103.042 3.46497 104.461C4.26775 105.88 6.05855 106.342 7.47885 105.54ZM57.3435 105.633L56.5099 103.597L30.2962 114.455L31.1298 116.491L57.3435 105.633ZM32.9206 115.751L32.087 113.715L11.3075 122.321L12.1411 124.357L32.9206 115.751ZM8.00374 124.851C8.62126 126.362 10.3503 127.072 11.8324 126.424C13.3144 125.776 14.0554 124.08 13.407 122.599C12.7586 121.118 11.0605 120.378 9.57841 121.026C8.09637 121.674 7.35534 123.37 8.00374 124.851ZM32.4266 113.746L10.1342 110.815L9.8563 113.005L32.1487 115.936L32.4266 113.746ZM5.9968 111.371C5.78067 112.975 6.92308 114.455 8.52863 114.671C10.1342 114.887 11.6162 113.746 11.8324 112.142C12.0485 110.538 10.9061 109.057 9.30053 108.841C7.69498 108.625 6.21293 109.766 5.9968 111.371ZM33.1059 115.442L31.346 114.116L17.637 131.946L19.397 133.272L33.1059 115.442ZM20.2306 135.246C21.2187 133.951 20.9716 132.131 19.6749 131.144C18.3781 130.157 16.5564 130.403 15.5683 131.699C14.5803 132.995 14.8273 134.815 16.1241 135.802C17.4209 136.789 19.2426 136.542 20.2306 135.246ZM63.6731 117.355L62.1293 115.813L42.0599 135.863L43.6037 137.406L63.6731 117.355ZM44.9931 136.018L43.4493 134.475L27.5482 150.362L29.092 151.904L44.9931 136.018ZM25.4795 153.971C26.6219 155.112 28.4745 155.112 29.6478 153.971C30.8211 152.829 30.7902 150.979 29.6478 149.806C28.5054 148.634 26.6528 148.665 25.4795 149.806C24.3062 150.948 24.3371 152.799 25.4795 153.971ZM44.3756 136.48L43.789 134.352L22.0523 140.182L22.6389 142.311L44.3756 136.48ZM18.5016 142.28C18.9338 143.853 20.5394 144.778 22.1141 144.346C23.6887 143.915 24.615 142.311 24.1827 140.737C23.7505 139.164 22.1449 138.239 20.5703 138.671C18.9956 139.102 18.0693 140.706 18.5016 142.28ZM45.1166 135.678L42.9862 135.092L37.1506 156.809L39.2811 157.395L45.1166 135.678ZM40.794 158.876C41.2263 157.302 40.2691 155.698 38.7253 155.266C37.1815 154.835 35.5451 155.791 35.1128 157.333C34.6806 158.876 35.6377 160.511 37.1815 160.942C38.7253 161.374 40.3617 160.418 40.794 158.876ZM75.9 125.931L73.8622 125.098L62.9938 151.287L65.0316 152.12L75.9 125.931ZM65.7727 150.331L63.7348 149.498L55.1204 170.258L57.1583 171.091L65.7727 150.331ZM54.6264 174.361C56.1394 174.978 57.8375 174.268 58.4551 172.788C59.0726 171.307 58.3624 169.58 56.8804 168.963C55.3983 168.346 53.6693 169.055 53.0518 170.536C52.4342 172.017 53.1444 173.744 54.6264 174.361ZM65.3713 150.979L64.0436 149.22L46.1973 162.917L47.525 164.675L65.3713 150.979ZM43.6964 166.217C44.6844 167.513 46.5369 167.76 47.8028 166.773C49.0688 165.785 49.3466 163.935 48.3586 162.67C47.3706 161.405 45.518 161.127 44.2521 162.115C42.9862 163.102 42.7083 164.953 43.6964 166.217ZM68.675 172.233L65.7418 149.961L63.5496 150.238L66.4828 172.51L68.675 172.233ZM70.6202 173.035C70.4041 171.431 68.922 170.289 67.3165 170.505C65.7109 170.721 64.5685 172.202 64.7846 173.806C65.0008 175.41 66.4828 176.551 68.0884 176.335C69.6939 176.119 70.8363 174.639 70.6202 173.035Z" fill="url(#paint0_linear_701_1100)" fill-opacity="0.8"/>
<defs>
<linearGradient id="paint0_linear_701_1100" x1="51.5652" y1="0.196289" x2="51.5652" y2="182.196" gradientUnits="userSpaceOnUse">
<stop stop-color="#E0EFD0" stop-opacity="0.2"/>
<stop offset="1" stop-color="#4E75FF"/>
</linearGradient>
</defs>
</svg>
