<svg width="182" height="104" viewBox="0 0 182 104" fill="none" xmlns="http://www.w3.org/2000/svg">
<path d="M52.9034 14.3889L52.9034 16.5839L24.5546 16.5839L24.5546 14.3889L52.9034 14.3889ZM4.01017 14.3889L4.01017 16.5839L26.498 16.5839L26.498 14.3889L4.04101 14.3889L4.01017 14.3889ZM-3.85943e-06 15.5019C-3.78781e-06 17.1404 1.32644 18.4388 2.9305 18.4388C4.53457 18.4388 5.86101 17.1094 5.86101 15.5019C5.86101 13.8943 4.53457 12.5649 2.9305 12.5649C1.32644 12.5649 -3.9297e-06 13.8943 -3.85943e-06 15.5019ZM7.34169 3.3213L6.23118 5.23804L25.6959 16.4911L26.8064 14.5744L7.34169 3.3213ZM3.33152 2.27019C2.52949 3.66137 2.9922 5.48536 4.41118 6.28915C5.83016 7.09294 7.61932 6.62922 8.42135 5.20712C9.22338 3.78503 8.76067 1.99196 7.34169 1.18816C5.92271 0.384369 4.13355 0.848091 3.33152 2.27019ZM25.6959 14.5126L6.23118 25.7657L7.34169 27.6824L26.8064 16.4293L25.6959 14.5126ZM7.34169 29.8156C8.72983 29.0118 9.22339 27.2187 8.42135 25.7966C7.61932 24.3745 5.83017 23.9108 4.41118 24.7146C2.9922 25.5183 2.52949 27.3114 3.33152 28.7335C4.13356 30.1556 5.92271 30.6193 7.34169 29.8156ZM129.127 14.3889L129.127 16.5839L157.476 16.5839L157.476 14.3889L129.127 14.3889ZM155.533 14.3889L155.533 16.5839L178.021 16.5839L178.021 14.3889L155.533 14.3889ZM182 15.5018C182 13.8633 180.674 12.5649 179.069 12.5649C177.465 12.5649 176.139 13.8943 176.139 15.5018C176.139 17.1094 177.465 18.4388 179.069 18.4388C180.674 18.4388 182 17.1094 182 15.5018ZM156.304 14.5126L155.194 16.4293L174.658 27.6824L175.769 25.7657L156.304 14.5126ZM178.668 28.7335C179.47 27.3423 179.008 25.5183 177.589 24.7146C176.17 23.9108 174.381 24.3745 173.579 25.7966C172.777 27.2187 173.239 29.0117 174.658 29.8155C176.077 30.6193 177.866 30.1556 178.668 28.7335ZM174.658 3.3213L155.194 14.5744L156.304 16.4911L175.769 5.23803L174.658 3.3213ZM174.658 1.18816C173.27 1.99195 172.777 3.78503 173.579 5.20712C174.381 6.62921 176.17 7.09293 177.589 6.28914C179.008 5.48535 179.47 3.69228 178.668 2.27018C177.866 0.848083 176.077 0.384361 174.658 1.18816ZM56.3583 27.8679L30.1688 38.75L31.0017 40.7904L57.1912 29.9083L56.3583 27.8679ZM31.958 38.0081L11.1976 46.6334L12.0305 48.6738L32.7908 40.0484L31.958 38.0081ZM7.92779 49.1684C8.54474 50.6833 10.2722 51.3943 11.7529 50.7451C13.2336 50.0959 13.9739 48.3955 13.3261 46.9116C12.6783 45.4277 10.9817 44.6857 9.50101 45.3349C8.02034 45.9842 7.28 47.6845 7.92779 49.1684ZM10.0563 35.102L9.77864 37.297L32.0505 40.2339L32.3281 38.039L10.0563 35.102ZM5.95356 35.6585C5.73762 37.2661 6.87898 38.75 8.48305 38.9664C10.0871 39.1828 11.5678 38.039 11.7837 36.4314C11.9997 34.8238 10.8583 33.3399 9.25423 33.1235C7.65017 32.9071 6.16949 34.0509 5.95356 35.6585ZM31.3102 38.4099L17.6139 56.2789L19.3722 57.6082L33.0685 39.7393L31.3102 38.4099ZM20.1742 59.5868C21.1614 58.2884 20.9146 56.4644 19.619 55.4751C18.3234 54.4858 16.5034 54.7331 15.5163 56.0316C14.5291 57.33 14.7759 59.154 16.0715 60.1433C17.3671 61.1326 19.1871 60.8852 20.1742 59.5868ZM64.9647 40.1103L44.9139 60.2051L46.4563 61.7509L66.5071 41.656L64.9647 40.1103ZM46.302 58.8139L30.4156 74.7352L31.958 76.281L47.8444 60.3597L46.302 58.8139ZM28.3488 78.3523C29.4902 79.4961 31.341 79.4961 32.5132 78.3523C33.6854 77.2084 33.6546 75.3535 32.5132 74.1787C31.3719 73.004 29.521 73.0349 28.3488 74.1787C27.1766 75.3226 27.2075 77.1775 28.3488 78.3523ZM46.6413 58.6903L24.9247 64.5332L25.5108 66.6664L47.2275 60.8234L46.6413 58.6903ZM21.3464 66.6354C21.7783 68.2121 23.3824 69.1396 24.9556 68.7068C26.5288 68.2739 27.4542 66.6664 27.0224 65.0897C26.5905 63.513 24.9864 62.5856 23.4132 63.0184C21.84 63.4512 20.9146 65.0588 21.3464 66.6354ZM45.8085 59.4322L39.9783 81.1965L42.1068 81.7838L47.9369 60.0196L45.8085 59.4322ZM43.6183 83.2678C44.0502 81.6911 43.0939 80.0835 41.5515 79.6507C40.0091 79.2179 38.3742 80.1763 37.9424 81.722C37.5105 83.2678 38.4668 84.9063 40.0091 85.3391C41.5515 85.7719 43.1864 84.8135 43.6183 83.2678ZM76.6868 46.4788L65.8285 72.7257L67.8644 73.5604L78.7227 47.3135L76.6868 46.4788ZM66.5688 70.9326L57.9624 91.7385L59.9983 92.5732L68.6047 71.7674L66.5688 70.9326ZM57.438 95.8811C58.9495 96.4994 60.6461 95.7884 61.263 94.3045C61.88 92.8205 61.1705 91.0893 59.6898 90.471C58.2091 89.8527 56.4817 90.5637 55.8647 92.0477C55.2478 93.5316 55.9573 95.2628 57.438 95.8811ZM66.8464 70.7162L49.0166 84.4425L50.343 86.2047L68.1729 72.4784L66.8464 70.7162ZM46.518 87.7505C47.5051 89.0489 49.3559 89.2962 50.6207 88.3069C51.8854 87.3177 52.163 85.4627 51.1759 84.1952C50.1888 82.9277 48.338 82.6495 47.0732 83.6388C45.8085 84.628 45.5308 86.4829 46.518 87.7505ZM68.543 71.4273L66.3529 71.7055L69.2834 94.0262L71.4735 93.748L68.543 71.4273ZM73.4478 94.5827C73.2319 92.9751 71.7512 91.8313 70.1471 92.0477C68.543 92.2641 67.4017 93.748 67.6176 95.3556C67.8335 96.9632 69.3142 98.107 70.9183 97.8906C72.5224 97.6742 73.6637 96.1903 73.4478 94.5827ZM89.9512 50.8069L89.9512 79.187L92.1413 79.187L92.1413 50.776L89.9512 50.776L89.9512 50.8069ZM89.9512 77.2702L89.9512 99.7455L92.1413 99.7455L92.1413 77.2084L89.9512 77.2084L89.9512 77.2702ZM91.0617 103.795C92.6966 103.795 93.9922 102.466 93.9922 100.858C93.9922 99.2509 92.6658 97.9215 91.0617 97.9215C89.4268 97.9215 88.1312 99.2509 88.1312 100.858C88.1312 102.466 89.3959 103.764 91.0308 103.764L91.0617 103.795ZM90.1363 76.9302L78.9078 96.4376L80.8203 97.5506L92.0488 78.0431L90.1363 76.9302ZM77.859 100.457C79.2471 101.26 81.0671 100.797 81.8691 99.3745C82.6712 97.9525 82.2085 96.1594 80.7895 95.3556C79.3705 94.5518 77.5813 95.0155 76.7793 96.4376C75.9773 97.8597 76.44 99.6528 77.859 100.457ZM91.9871 76.9302L90.0746 78.0431L101.303 97.5506L103.216 96.4376L91.9871 76.9302ZM105.344 96.4376C104.542 95.0464 102.753 94.5518 101.334 95.3556C99.9149 96.1594 99.4522 97.9525 100.254 99.3745C101.056 100.797 102.845 101.26 104.264 100.457C105.683 99.6528 106.146 97.8597 105.344 96.4376ZM105.437 46.5097L103.401 47.3444L114.259 73.5913L116.295 72.7566L105.437 46.5097ZM115.555 70.9636L113.519 71.7983L122.125 92.6041L124.161 91.7694L115.555 70.9636ZM124.655 95.9121C126.166 95.2937 126.876 93.5625 126.228 92.0786C125.58 90.5947 123.883 89.8527 122.403 90.5019C120.922 91.1511 120.182 92.8515 120.829 94.3354C121.477 95.8193 123.174 96.5613 124.655 95.9121ZM113.549 71.4582L110.619 93.7789L112.809 94.0571L115.74 71.7364L113.549 71.4582ZM111.174 97.9215C112.778 98.1379 114.259 96.9941 114.475 95.3865C114.691 93.7789 113.549 92.295 111.945 92.0786C110.341 91.8622 108.861 93.006 108.645 94.6136C108.429 96.2212 109.57 97.7051 111.174 97.9215ZM115.246 70.7781L113.92 72.5402L131.749 86.2665L133.076 84.5044L115.246 70.7781ZM135.05 83.6697C133.755 82.6804 131.935 82.9277 130.947 84.2261C129.96 85.5246 130.207 87.3486 131.503 88.3378C132.798 89.3271 134.618 89.0798 135.605 87.7814C136.593 86.4829 136.346 84.659 135.05 83.6697ZM117.159 40.1721L115.616 41.7179L135.667 61.8127L137.209 60.2669L117.159 40.1721ZM135.821 58.8757L134.279 60.4215L150.165 76.3428L151.708 74.797L135.821 58.8757ZM153.775 78.4141C154.916 77.2702 154.916 75.4153 153.775 74.2406C152.633 73.0658 150.782 73.0967 149.61 74.2406C148.438 75.3844 148.469 77.2393 149.61 78.4141C150.752 79.5889 152.602 79.558 153.775 78.4141ZM136.284 59.4941L134.156 60.0814L139.986 81.8457L142.114 81.2583L136.284 59.4941ZM142.083 85.4009C143.657 84.9681 144.582 83.3605 144.15 81.7838C143.718 80.2072 142.114 79.2797 140.541 79.7125C138.968 80.1453 138.042 81.7529 138.474 83.3296C138.906 84.9063 140.51 85.8337 142.083 85.4009ZM135.482 58.7521L134.896 60.8852L156.613 66.7282L157.199 64.595L135.482 58.7521ZM158.679 63.0802C157.106 62.6474 155.502 63.6058 155.07 65.1515C154.638 66.6973 155.595 68.3358 157.137 68.7686C158.679 69.2014 160.314 68.243 160.746 66.6973C161.178 65.1515 160.222 63.513 158.679 63.0802ZM125.734 27.9297L124.901 29.9701L151.091 40.8522L151.924 38.8118L125.734 27.9297ZM150.135 38.0699L149.302 40.1103L170.062 48.7356L170.895 46.6952L150.135 38.0699ZM174.165 49.2302C174.782 47.7154 174.072 46.0151 172.591 45.3968C171.111 44.7785 169.383 45.4895 168.766 46.9734C168.149 48.4574 168.859 50.1886 170.34 50.8069C171.82 51.4252 173.548 50.7142 174.165 49.2302ZM150.782 38.4718L149.024 39.8011L162.72 57.6701L164.479 56.3407L150.782 38.4718ZM166.021 60.1742C167.317 59.1849 167.563 57.33 166.576 56.0625C165.589 54.795 163.738 54.5167 162.474 55.506C161.209 56.4953 160.931 58.3502 161.918 59.6177C162.905 60.8852 164.756 61.1635 166.021 60.1742ZM172.036 35.1639L149.764 38.1008L150.042 40.2958L172.314 37.3588L172.036 35.1639ZM172.838 33.2162C171.234 33.4326 170.093 34.9165 170.309 36.5241C170.525 38.1317 172.005 39.2756 173.609 39.0592C175.214 38.8428 176.355 37.3588 176.139 35.7512C175.923 34.1437 174.442 32.9998 172.838 33.2162Z" fill="url(#paint0_linear_701_1375)" fill-opacity="0.8"/>
<defs>
<linearGradient id="paint0_linear_701_1375" x1="-2.25114e-06" y1="52.2954" x2="182" y2="52.2954" gradientUnits="userSpaceOnUse">
<stop stop-color="#E0EFD0" stop-opacity="0.2"/>
<stop offset="1" stop-color="#4E75FF"/>
</linearGradient>
</defs>
</svg>
