<svg width="32" height="33" viewBox="0 0 32 33" fill="none" xmlns="http://www.w3.org/2000/svg">
<path d="M6.97619 3.24951C5.33903 3.24951 4 4.58854 4 6.2257V25.2733C4 26.9105 5.33903 28.2495 6.97619 28.2495H26.0238C27.661 28.2495 29 26.9105 29 25.2733V6.2257C29 4.58854 27.661 3.24951 26.0238 3.24951H6.97619ZM6.97619 4.43999H26.0238C27.0188 4.43999 27.8095 5.23072 27.8095 6.2257V25.2733C27.8095 26.2683 27.0188 27.059 26.0238 27.059H6.97619C5.9812 27.059 5.19048 26.2683 5.19048 25.2733V6.2257C5.19048 5.23072 5.9812 4.43999 6.97619 4.43999ZM17.1208 6.82094C16.9632 6.82096 16.8119 6.88351 16.7003 6.99489C16.5888 7.10626 16.5259 7.25736 16.5256 7.41502C16.5256 7.41502 16.519 10.3169 16.5128 13.2256C16.5096 14.6799 16.5058 16.1357 16.5035 17.2318C16.5011 18.3279 16.5 19.0214 16.5 19.0791C16.5 20.1596 15.5187 21.0427 14.4004 21.0427C13.291 21.0427 12.4054 20.156 12.4054 19.0466C12.4054 17.9372 13.291 17.0516 14.4004 17.0516C14.438 17.0516 14.5137 17.0639 14.6434 17.0795C14.727 17.0895 14.8118 17.0817 14.8921 17.0565C14.9725 17.0314 15.0466 16.9894 15.1096 16.9335C15.1725 16.8776 15.2229 16.8089 15.2574 16.7321C15.2918 16.6552 15.3096 16.572 15.3095 16.4877V13.987C15.3095 13.8356 15.2518 13.6899 15.1481 13.5795C15.0444 13.4692 14.9026 13.4025 14.7515 13.393C14.6587 13.3871 14.542 13.3755 14.4004 13.3755C11.2757 13.3755 8.72935 15.9219 8.72935 19.0466C8.72935 22.1713 11.2757 24.7176 14.4004 24.7176C17.525 24.7176 20.0714 22.1713 20.0714 19.0466V13.6604C20.9373 14.3529 22.0164 14.7916 23.2081 14.7916C23.3706 14.7916 23.5252 14.7819 23.6731 14.7683C23.8209 14.7547 23.9583 14.6863 24.0583 14.5766C24.1583 14.4669 24.2137 14.3238 24.2137 14.1754V11.3957C24.2138 11.2452 24.1569 11.1003 24.0544 10.99C23.9519 10.8798 23.8115 10.8125 23.6615 10.8016C21.7896 10.6673 20.2975 9.20916 20.1028 7.35456C20.0876 7.20821 20.0187 7.07269 19.9094 6.97415C19.8001 6.8756 19.6582 6.82103 19.5111 6.82094H17.1208ZM17.7149 8.01142H19.0728C19.5054 9.97493 21.0397 11.4724 23.0232 11.8479V13.5534C21.7501 13.4888 20.6318 12.8536 19.9738 11.8526C19.9034 11.7454 19.8003 11.6639 19.6798 11.62C19.5594 11.5762 19.428 11.5724 19.3052 11.6092C19.1824 11.6461 19.0748 11.7216 18.9984 11.8245C18.9219 11.9274 18.8807 12.0522 18.881 12.1804V19.0466C18.881 21.5278 16.8817 23.5271 14.4004 23.5271C11.9192 23.5271 9.91983 21.5278 9.91983 19.0466C9.91983 16.6653 11.7774 14.7752 14.119 14.623V15.9181C12.5038 16.0684 11.2149 17.3937 11.2149 19.0466C11.2149 20.7991 12.6479 22.2332 14.4004 22.2332C16.144 22.2332 17.6905 20.8605 17.6905 19.0791C17.6905 19.1082 17.6916 18.3302 17.694 17.2341C17.6963 16.138 17.7001 14.6822 17.7033 13.2279C17.7089 10.6166 17.7138 8.5169 17.7149 8.01142Z" fill="#0C0421" stroke="#0C0421" stroke-width="0.5"/>
</svg>
