<svg width="32" height="33" viewBox="0 0 32 33" fill="none" xmlns="http://www.w3.org/2000/svg">
<path fill-rule="evenodd" clip-rule="evenodd" d="M15.71 4.05255C9.76 4.46255 5.01 9.40255 4.82 15.3625C4.74 17.7725 5.39 20.1025 6.69 22.1025L3.75 28.0225C3.84 28.0225 11.02 26.0825 11.02 26.0825C12.71 26.9925 14.61 27.4625 16.54 27.4625C23 27.4625 28.26 22.2025 28.26 15.7425C28.26 9.28255 22.55 3.58255 15.71 4.05255ZM16.53 25.4225C14.82 25.4225 13.13 24.9625 11.66 24.1025C11.5 24.0125 11.29 23.8625 11.29 23.8625C11.29 23.8625 10.96 23.9725 10.87 23.9925L7.66 24.8725L9.03 21.8525C7.48 19.9425 6.72 17.5825 6.87 15.1225C7.16 10.3225 11.04 6.41255 15.84 6.08255C21.48 5.69255 26.2 10.1725 26.2 15.7325C26.2 21.2925 21.86 25.4125 16.52 25.4125L16.53 25.4225Z" fill="#0C0421"/>
<path fill-rule="evenodd" clip-rule="evenodd" d="M21.0399 17.5026C20.5499 17.2126 19.9099 16.8826 19.3299 17.1226C18.8899 17.3026 18.5999 18.0026 18.3199 18.3526C18.1699 18.5326 17.9999 18.5626 17.7699 18.4726C16.0999 17.8126 14.8299 16.6926 13.9099 15.1626C13.7499 14.9226 13.7799 14.7326 13.9699 14.5126C14.2499 14.1826 14.5999 13.8126 14.6699 13.3726C14.7499 12.9326 14.5399 12.4126 14.3599 12.0226C14.1299 11.5226 13.8699 10.8026 13.3699 10.5226C12.9099 10.2626 12.2999 10.4126 11.8899 10.7426C11.1799 11.3226 10.8399 12.2226 10.8499 13.1226C10.8499 13.3826 10.8799 13.6326 10.9399 13.8826C11.4399 15.9326 12.8499 17.6626 14.4999 18.9126C15.9199 19.9926 18.2699 21.4526 20.1399 21.1026C21.0499 20.9326 21.9399 20.3726 22.2999 19.4926C22.4099 19.2326 22.4599 18.9426 22.3999 18.6726C22.2799 18.1126 21.5099 17.7726 21.0499 17.5026H21.0399Z" fill="#0C0421"/>
</svg>
